<svg xmlns="http://www.w3.org/2000/svg" viewBox="0 0 24.81 24.93"><defs><style>.cls-1{fill:#734a91;}</style></defs><g id="Capa_2" data-name="Capa 2"><g id="Capa_1-2" data-name="Capa 1"><path class="cls-1" d="M3.58,23.06C-.35,21-2.85,14.08,6,1.18a2.69,2.69,0,0,1,4.45,0c3,4.52,8.71,13.41,3.79,20.47C12,24.81,7,24.89,3.58,23.06Z"/><path class="cls-1" d="M15.21,6.58s2.27-7.23,5.06-5.14S31.16,26.1,15.21,24.88c0,0-2,0-1.8-.87s0-.11,0-.11a4.53,4.53,0,0,0,3-2.26c1.12-2,2.67-9.83-1.22-15.06Z"/></g></g></svg>