<svg xmlns="http://www.w3.org/2000/svg" viewBox="0 0 31.9 32.93"><defs><style>.cls-1{fill:#734a91;}</style></defs><g id="Capa_2" data-name="Capa 2"><g id="Capa_1-2" data-name="Capa 1"><path class="cls-1" d="M6.67,5.93s-2.22-2-3.55,0,1.77,5.46,1.77,5.46,1.33,2.45-.77,6.55c0,0-.56,7.89-2.23,8.77s-4.66,7.66,3.89,5.67c0,0,10.66.44,14.66-.45,0,0,7.32,0,8.43.81s6.22-1.25,0-7.14c0,0-2.66-9.41-1.55-11s1.89-6.56,1.89-6.56.13-5-3.65-2.13S12.11,7.48,12.11,7.48Z"/><path class="cls-1" d="M7.11,4.18S12.89,8.89,24.77,5L23.1,2.62l-1.22,1V2.16H20.77l-1-1.54H17l-1-.62L15,1.07,13.33,0,11.22.51V2.16L8.61,1.73v1l-1.5.54Z"/></g></g></svg>