<?xml version="1.0" encoding="utf-8"?>
<!-- Generator: Adobe Illustrator 24.0.2, SVG Export Plug-In . SVG Version: 6.00 Build 0)  -->
<svg version="1.1" id="Capa_1" xmlns="http://www.w3.org/2000/svg" xmlns:xlink="http://www.w3.org/1999/xlink" x="0px" y="0px"
	 viewBox="0 0 595.28 595.28" style="enable-background:new 0 0 595.28 595.28;" xml:space="preserve">
<style type="text/css">
	.st0{fill:#372459;}
	.st1{fill:#FFFFFF;}
</style>
<g>
	<path class="st0" d="M158.61,544.95c-10.11-4.08-19.25-7.72-28.35-11.46c-25.75-10.61-51.54-21.14-77.2-31.98
		c-9.85-4.16-8.75-1.21-8.83-12.75c-0.29-41.07-0.31-82.15-0.42-123.22c-0.02-7.2,0-14.41,0-22.3c4.45,1.72,8.05,3.03,11.59,4.49
		c32.98,13.56,65.94,27.18,98.96,40.65c2.97,1.21,4.01,2.66,4.01,5.95c-0.02,44.24,0.13,88.48,0.23,132.73
		C158.62,532.74,158.61,538.43,158.61,544.95z"/>
	<path class="st0" d="M434.71,545.14c0-14.03-0.05-27.79,0.01-41.55c0.16-36.78,0.37-73.57,0.53-110.35
		c0.01-1.85,0.19-3.04,2.29-3.91c36.36-14.96,72.67-30.05,108.99-45.1c0.54-0.22,1.11-0.36,2.09-0.67c0,2.41,0,4.51,0,6.62
		c0.04,48.12,0.06,96.24,0.18,144.36c0.01,2.64-0.78,3.88-3.25,4.9c-36.55,15.04-73.05,30.2-109.56,45.33
		C435.73,544.88,435.44,544.93,434.71,545.14z"/>
	<path class="st0" d="M308.8,344.37c3,1.24,5.06,2.02,7.06,2.92c30.61,13.73,61.21,27.5,91.85,41.17c2.34,1.05,3.22,2.21,3.22,4.9
		c-0.1,49.47-0.07,98.94-0.07,148.41c0,0.71,0,1.42,0,2.62c-2.65-1.13-5.04-2.1-7.39-3.15c-30.63-13.68-61.26-27.38-91.91-41.01
		c-2.1-0.93-2.97-1.96-2.96-4.45c0.15-43.24,0.17-86.47,0.21-129.71C308.81,359.08,308.8,352.09,308.8,344.37z"/>
	<path class="st0" d="M284.7,344.3c0,9.62,0.01,18.56,0,27.51c-0.04,35.37-0.08,70.74-0.15,106.11c-0.01,6.11-0.22,12.23-0.14,18.34
		c0.02,1.89-0.78,2.69-2.32,3.39c-27.41,12.38-54.81,24.8-82.21,37.2c-5.62,2.54-11.25,5.08-17.17,7.75
		c-0.06-1.17-0.13-1.94-0.13-2.71c-0.01-49.45,0.02-98.89-0.07-148.34c-0.01-2.69,0.95-3.89,3.27-4.94
		c31.34-14.07,62.64-28.24,93.95-42.36C281.02,345.66,282.36,345.21,284.7,344.3z"/>
	<path class="st0" d="M411.66,117.4c0,8.25,0.01,15.99,0,23.73c-0.06,39.31-0.13,78.63-0.18,117.94c0,1.66,0.02,2.92-2.01,3.81
		c-33.11,14.58-66.17,29.28-99.24,43.95c-0.36,0.16-0.76,0.22-1.43,0.4c-0.06-0.98-0.17-1.82-0.16-2.67
		c0.08-33.63,0.14-67.26,0.26-100.89c0.05-13.45,0.24-26.89,0.3-40.33c0.01-1.6,0.31-2.5,1.96-3.2
		c32.81-13.97,65.59-28.01,98.38-42.04C409.98,117.91,410.47,117.79,411.66,117.4z"/>
	<path class="st0" d="M182.84,117.41c6.58,2.85,12.91,5.57,19.23,8.32c26.47,11.51,52.92,23.05,79.42,34.49
		c2.43,1.05,3.25,2.41,3.24,5.04c-0.12,41.9-0.13,83.8-0.17,125.7c0,5.28,0,10.55,0,16.5c-2.61-1.11-4.61-1.92-6.58-2.8
		c-31.08-13.9-62.15-27.82-93.25-41.68c-1.47-0.66-2.19-1.32-2.19-3.08c0.05-47.11,0.04-94.21,0.05-141.32
		C182.59,118.37,182.67,118.17,182.84,117.41z"/>
	<path class="st0" d="M64.56,325.85c12.15-5.16,23.48-10.13,34.94-14.8c20.4-8.33,40.93-16.37,61.3-24.77
		c6.74-2.78,12.68-3.12,19.68,0.2c27.65,13.09,55.61,25.51,83.46,38.18c0.8,0.37,1.58,0.8,2.95,1.5c-3.85,1.82-7.17,3.45-10.54,4.96
		c-27.55,12.34-55.12,24.65-82.67,37.01c-2.22,1-4.15,1.16-6.55,0.16c-32.87-13.6-65.79-27.07-98.69-40.58
		C67.41,327.28,66.43,326.75,64.56,325.85z"/>
	<path class="st0" d="M528.1,326.1c-3.49,1.59-6.02,2.83-8.62,3.9c-31.2,12.83-62.41,25.63-93.59,38.49
		c-1.82,0.75-3.27,0.73-5.1-0.09c-29.12-13.05-58.27-26.01-87.41-39c-2.12-0.94-4.17-2.04-6.87-3.36c4.7-2.28,8.89-4.46,13.19-6.38
		c25.44-11.31,50.93-22.5,76.35-33.87c5.54-2.48,10.54-2.53,16.29-0.1c28.8,12.19,57.77,23.97,86.67,35.95
		C521.85,322.82,524.56,324.35,528.1,326.1z"/>
	<path class="st0" d="M201.91,99.74c3.29-1.72,5.79-3.26,8.46-4.39c27.6-11.72,55.23-23.34,82.83-35.07
		c2.91-1.24,5.44-1.25,8.42,0.04c28.62,12.46,57.29,24.77,85.95,37.14c1.11,0.48,2.18,1.07,3.92,1.93
		c-4.66,2.21-8.76,4.31-12.98,6.15c-26.47,11.51-52.95,22.99-79.48,34.37c-1.38,0.59-3.45,0.64-4.82,0.06
		c-30.05-12.95-60.05-26.04-90.05-39.1C203.7,100.67,203.27,100.42,201.91,99.74z"/>
</g>
</svg>
