<?xml version="1.0" encoding="UTF-8"?><svg xmlns="http://www.w3.org/2000/svg" viewBox="0 0 29.38 32.35"><defs><style>.d{fill:#341f59;}.e{fill:none;stroke:#f3f3f3;stroke-miterlimit:10;stroke-width:1.41px;}.f{fill:#f3f3f3;}</style></defs><g id="a"/><g id="b"><g><circle class="d" cx="14.69" cy="16.17" r="12.35"/><path class="f" d="M7.94,8.88h13.45c.5,0,.91,.41,.91,.91v.74H7.04v-.74c0-.5,.41-.91,.91-.91Z"/><path class="e" d="M11.95,8.88v-.78c0-.35,.23-.63,.51-.63h4.39c.28,0,.51,.28,.51,.63v.78"/><path class="f" d="M7.87,11.99l1.79,12.35c.03,.18,.19,.32,.37,.32h9.42c.19,0,.35-.14,.37-.33l1.65-12.34H7.87Zm4.12,10.51h-.07c-.25,.03-.48-.16-.5-.41l-.68-7.57c-.02-.25,.16-.48,.42-.5h.07c.25-.03,.48,.16,.5,.41l.68,7.57c.02,.25-.16,.48-.42,.5Zm3.17-.44c0,.25-.21,.46-.46,.46h-.07c-.25,0-.46-.21-.46-.46v-7.6c0-.25,.21-.46,.46-.46h.07c.25,0,.46,.21,.46,.46v7.6Zm2.77,.03c-.02,.25-.25,.44-.5,.42h-.07c-.25-.03-.44-.25-.42-.51l.68-7.57c.02-.25,.25-.44,.5-.42h.07c.25,.03,.44,.25,.42,.51l-.68,7.57Z"/></g></g><g id="c"/></svg>