<?xml version="1.0" encoding="UTF-8"?><svg xmlns="http://www.w3.org/2000/svg" viewBox="0 0 40 18"><defs><style>.d{fill:#37195a;}</style></defs><g id="a"/><g id="b"><g><g><path class="d" d="M1.03,12.24c-.59-1.79,.56-4.39,2.76-6.41,2.63-2.41,6.53-3.71,8.09-2.01,.08,.09,.15,.18,.22,.28-1.3,.27-4.26,1.22-4.91,4.46-.68,3.38-4.74,3.67-6.16,3.67Z"/><path class="d" d="M2.06,14.16c-.26-.28-.44-.61-.56-.96,1.42,0,5.48-.29,6.16-3.67,.65-3.24,3.61-4.2,4.91-4.46,.05,.07,.09,.14,.14,.21,1.03,1.8,.1,4.76-2.3,6.96-2.63,2.41-6.78,3.63-8.34,1.93Z"/></g><g><path class="d" d="M13.89,12.24c-.59-1.79,.56-4.39,2.76-6.41,2.63-2.41,6.53-3.71,8.09-2.01,.08,.09,.15,.18,.22,.28-1.3,.27-4.26,1.22-4.91,4.46-.68,3.38-4.74,3.67-6.16,3.67Z"/><path class="d" d="M14.92,14.16c-.26-.28-.44-.61-.56-.96,1.42,0,5.48-.29,6.16-3.67,.65-3.24,3.61-4.2,4.91-4.46,.05,.07,.09,.14,.14,.21,1.03,1.8,.1,4.76-2.3,6.96-2.63,2.41-6.78,3.63-8.34,1.93Z"/></g><g><path class="d" d="M27.03,12.24c-.59-1.79,.56-4.39,2.76-6.41,2.63-2.41,6.53-3.71,8.09-2.01,.08,.09,.15,.18,.22,.28-1.3,.27-4.26,1.22-4.91,4.46-.68,3.38-4.74,3.67-6.16,3.67Z"/><path class="d" d="M28.06,14.16c-.26-.28-.44-.61-.56-.96,1.42,0,5.48-.29,6.16-3.67,.65-3.24,3.61-4.2,4.91-4.46,.05,.07,.09,.14,.14,.21,1.03,1.8,.1,4.76-2.3,6.96-2.63,2.41-6.78,3.63-8.34,1.93Z"/></g></g></g><g id="c"/></svg>