<?xml version="1.0" encoding="UTF-8"?><svg xmlns="http://www.w3.org/2000/svg" viewBox="0 0 40 40"><defs><style>.e{fill:#fff;}.f{fill:#cd96c7;}</style></defs><g id="a"/><g id="b"/><g id="c"><g><path class="f" d="M38.25,20.03c-.01,10.75-9.32,19.31-20.33,18.1-8.35-.92-15.13-7.71-16.05-16.06C.65,11.03,9.26,1.73,20.06,1.75c10.07,.02,18.2,8.19,18.19,18.28Z"/><path class="f" d="M20,36.27c-8.71,.06-16.18-7.01-16.28-16.07C3.6,8.67,15.23,.56,26.03,4.93c5.61,2.27,9.63,7.56,10.17,13.59,.86,9.65-6.72,17.74-16.19,17.74Z"/></g><g id="d"><path class="e" d="M13.83,25.02h9.57c.06,0,.13,0,.19,0,.47,0,.76,.24,.76,.6,0,.36-.3,.59-.77,.59-2.95,0-5.91,0-8.86,0-.41,0-.81,0-1.22,0-.46,0-.68-.18-.76-.62-.39-2.24-.78-4.49-1.17-6.73-.15-.84-.3-1.68-.44-2.52-.03-.19-.13-.21-.29-.21-.74,0-1.48,0-2.22,0-.4,0-.65-.23-.65-.58,0-.35,.26-.57,.66-.57,.95,0,1.91,0,2.86,0,.4,0,.58,.15,.66,.55,.09,.45,.17,.9,.26,1.36,.14,0,.25,0,.37,0,4.13,0,8.26,0,12.4,0,.88,0,1.06,.25,.78,1.07-.53,1.58-1.06,3.17-1.6,4.75-.16,.47-.28,.55-.76,.55-3.21,0-6.42,0-9.64,0h-.43l.3,1.75Zm-1.22-6.94l.71,4.01s.06,.03,.08,.03c3.24,0,6.48,0,9.73,0,.18,0,.23-.08,.28-.23,.31-.95,.63-1.9,.95-2.84,.11-.32,.21-.63,.32-.97H12.61Z"/><path class="e" d="M14.53,29.37c-.63,0-1.14-.5-1.15-1.13,0-.62,.54-1.16,1.17-1.15,.62,0,1.14,.53,1.13,1.15,0,.62-.52,1.13-1.15,1.13Z"/><path class="e" d="M22.86,29.37c-.63,0-1.14-.51-1.14-1.14,0-.62,.51-1.14,1.13-1.15,.63,0,1.17,.53,1.16,1.16-.01,.63-.53,1.13-1.15,1.12Z"/></g><path class="e" d="M26.08,14.51c-.44,0-.87,0-1.31,0-.3,0-.48-.15-.48-.41,0-.25,.18-.4,.49-.4,.87,0,1.74,0,2.61,0,.16,0,.19-.04,.19-.19,0-.88,0-1.75,0-2.63,0-.36,.29-.57,.58-.42,.18,.09,.23,.26,.23,.45,0,.86,0,1.72,0,2.58,0,.18,.05,.21,.22,.21,.86,0,1.72,0,2.58,0,.29,0,.49,.18,.49,.41,0,.24-.19,.39-.48,.39-.86,0-1.72,0-2.58,0-.17,0-.24,.02-.23,.23,.02,.87,0,1.74,0,2.6,0,.36-.31,.56-.59,.4-.17-.09-.22-.25-.22-.43,0-.87,0-1.74,.01-2.61,0-.17-.05-.2-.2-.19-.43,0-.86,0-1.29,0Z"/></g></svg>