<svg xmlns="http://www.w3.org/2000/svg" viewBox="0 0 50.28 49.22"><defs><style>.cls-1{fill:#d7b4d1;}.cls-2{fill:#341f59;}.cls-3{fill:#734a91;}</style></defs><g id="Capa_2" data-name="Capa 2"><g id="Capa_1-2" data-name="Capa 1"><rect class="cls-1" width="50.28" height="49.22" rx="6.73"/><path class="cls-2" d="M11.74,42.05a4,4,0,0,1-1.56-.3A3.82,3.82,0,0,1,8.9,40.9a3.74,3.74,0,0,1-.85-1.26,4.21,4.21,0,0,1,0-3.12,3.74,3.74,0,0,1,.85-1.26,4,4,0,0,1,2.84-1.15,4.45,4.45,0,0,1,1.16.15,3.93,3.93,0,0,1,1,.43,3.35,3.35,0,0,1,.86.69l-.56.59a3.11,3.11,0,0,0-1.12-.8,3.39,3.39,0,0,0-1.37-.28,3.15,3.15,0,0,0-1.24.24,3,3,0,0,0-1,.68,3.35,3.35,0,0,0-.66,3.53,3.13,3.13,0,0,0,.67,1,3,3,0,0,0,1,.68,3.24,3.24,0,0,0,1.25.24A3.39,3.39,0,0,0,13.13,41a3,3,0,0,0,1.08-.77l.55.57a4.06,4.06,0,0,1-1.89,1.11A4.22,4.22,0,0,1,11.74,42.05Z"/><path class="cls-2" d="M18.32,42a2.83,2.83,0,0,1-2.84-2.86,2.82,2.82,0,0,1,1.34-2.46,2.6,2.6,0,0,1,1.38-.38,2.4,2.4,0,0,1,1.32.38,2.88,2.88,0,0,1,.94,1,3,3,0,0,1,.34,1.44v.25H16.28a2.31,2.31,0,0,0,.35,1,2,2,0,0,0,1.72.92,2.68,2.68,0,0,0,.84-.13,1.86,1.86,0,0,0,.68-.37l.5.54a3.18,3.18,0,0,1-1,.51A3.46,3.46,0,0,1,18.32,42Zm-2-3.26H20a1.92,1.92,0,0,0-.33-.88,1.9,1.9,0,0,0-.64-.62,1.66,1.66,0,0,0-.85-.22,1.69,1.69,0,0,0-.86.22,1.76,1.76,0,0,0-.66.61A2.25,2.25,0,0,0,16.3,38.77Z"/><path class="cls-2" d="M21.94,41.93v-7.7l.81-.19v7.89Z"/><path class="cls-2" d="M23.84,35.33l1-1.28h1.05l-1.37,1.28Zm.3,6.6V36.42H25v5.51Z"/><path class="cls-2" d="M28.07,42A2.54,2.54,0,0,1,27,41.82a1.7,1.7,0,0,1-.71-.58,1.51,1.51,0,0,1-.26-.87,1.47,1.47,0,0,1,.59-1.23,2.61,2.61,0,0,1,1.61-.45,3.51,3.51,0,0,1,1.62.37v-.73a1.25,1.25,0,0,0-.38-1A1.6,1.6,0,0,0,28.39,37a3,3,0,0,0-.82.12,5.21,5.21,0,0,0-.9.37l-.31-.63a6.11,6.11,0,0,1,1.1-.42,3.89,3.89,0,0,1,1-.13,2.37,2.37,0,0,1,1.61.49,1.8,1.8,0,0,1,.57,1.42v3.71h-.79v-.54a2.84,2.84,0,0,1-.82.48A2.78,2.78,0,0,1,28.07,42Zm-1.25-1.68a.89.89,0,0,0,.39.75,1.61,1.61,0,0,0,1,.29,2.57,2.57,0,0,0,.9-.15,2.08,2.08,0,0,0,.74-.49v-1a2.28,2.28,0,0,0-.73-.33,3,3,0,0,0-.87-.11,1.74,1.74,0,0,0-1.05.29A.93.93,0,0,0,26.82,40.35Z"/><path class="cls-2" d="M34.56,42a2.71,2.71,0,0,1-1.41-.38,2.81,2.81,0,0,1-1.39-2.48,2.85,2.85,0,0,1,.37-1.45,2.77,2.77,0,0,1,1-1,2.62,2.62,0,0,1,1.41-.39,3.14,3.14,0,0,1,2.16.87l-.52.59a2.28,2.28,0,0,0-.75-.53,2.19,2.19,0,0,0-.87-.18,1.86,1.86,0,0,0-1,.28,2,2,0,0,0-.73.76,2.13,2.13,0,0,0-.27,1.07,2.16,2.16,0,0,0,.27,1.08,2.05,2.05,0,0,0,.73.76,1.92,1.92,0,0,0,1,.28,2.22,2.22,0,0,0,.85-.17,2.47,2.47,0,0,0,.75-.52l.51.55a3.53,3.53,0,0,1-1,.65A3,3,0,0,1,34.56,42Z"/><path class="cls-2" d="M40.05,42a2.77,2.77,0,0,1-1.42-.38,2.73,2.73,0,0,1-1-1,2.89,2.89,0,0,1,1-3.93,2.86,2.86,0,0,1,2.85,0,2.8,2.8,0,0,1,1,1,3,3,0,0,1,0,2.9A2.79,2.79,0,0,1,40.05,42Zm0-.73a1.86,1.86,0,0,0,1-.28,2.19,2.19,0,0,0,0-3.7,2,2,0,0,0-2,0,2.08,2.08,0,0,0-.73.77,2.3,2.3,0,0,0,0,2.16A2.08,2.08,0,0,0,39,41,1.85,1.85,0,0,0,40.05,41.31Z"/><line class="cls-3" x1="25.21" y1="10.31" x2="25.37" y2="30.96"/><path class="cls-3" d="M25.57,15.44s-1.47-5.1,4.32-6C29.89,9.47,31.45,14.84,25.57,15.44Z"/><path class="cls-3" d="M25.09,10.83S21,7.47,25.24,3.46C25.24,3.46,29.58,7,25.09,10.83Z"/><path class="cls-3" d="M25.57,21.79s-1.47-5.11,4.32-6C29.89,15.82,31.45,21.18,25.57,21.79Z"/><path class="cls-3" d="M25.57,27.86s-1.47-5.1,4.32-6C29.89,21.89,31.45,27.26,25.57,27.86Z"/><path class="cls-3" d="M25.05,15.44s1.47-5.1-4.33-6C20.72,9.47,19.17,14.84,25.05,15.44Z"/><path class="cls-3" d="M25.05,21.79s1.47-5.11-4.33-6C20.72,15.82,19.17,21.18,25.05,21.79Z"/><path class="cls-3" d="M25.05,27.86s1.47-5.1-4.33-6C20.72,21.89,19.17,27.26,25.05,27.86Z"/><line class="cls-3" x1="38.59" y1="10.31" x2="38.75" y2="30.96"/><path class="cls-3" d="M38.94,15.44s-1.47-5.1,4.33-6C43.27,9.47,44.83,14.84,38.94,15.44Z"/><path class="cls-3" d="M38.46,10.83s-4.11-3.36.16-7.37C38.62,3.46,43,7,38.46,10.83Z"/><path class="cls-3" d="M38.94,21.79s-1.47-5.11,4.33-6C43.27,15.82,44.83,21.18,38.94,21.79Z"/><path class="cls-3" d="M38.94,27.86s-1.47-5.1,4.33-6C43.27,21.89,44.83,27.26,38.94,27.86Z"/><path class="cls-3" d="M38.42,15.44s1.47-5.1-4.32-6C34.1,9.47,32.54,14.84,38.42,15.44Z"/><path class="cls-3" d="M38.42,21.79s1.47-5.11-4.32-6C34.1,15.82,32.54,21.18,38.42,21.79Z"/><path class="cls-3" d="M38.42,27.86s1.47-5.1-4.32-6C34.1,21.89,32.54,27.26,38.42,27.86Z"/><line class="cls-3" x1="10.62" y1="10.31" x2="10.78" y2="30.96"/><path class="cls-3" d="M11,15.44s-1.47-5.1,4.32-6C15.3,9.47,16.86,14.84,11,15.44Z"/><path class="cls-3" d="M10.5,10.83s-4.12-3.36.15-7.37C10.65,3.46,15,7,10.5,10.83Z"/><path class="cls-3" d="M11,21.79s-1.47-5.11,4.32-6C15.3,15.82,16.86,21.18,11,21.79Z"/><path class="cls-3" d="M11,27.86s-1.47-5.1,4.32-6C15.3,21.89,16.86,27.26,11,27.86Z"/><path class="cls-3" d="M10.46,15.44s1.47-5.1-4.33-6C6.13,9.47,4.58,14.84,10.46,15.44Z"/><path class="cls-3" d="M10.46,21.79s1.47-5.11-4.33-6C6.13,15.82,4.58,21.18,10.46,21.79Z"/><path class="cls-3" d="M10.46,27.86s1.47-5.1-4.33-6C6.13,21.89,4.58,27.26,10.46,27.86Z"/></g></g></svg>