<?xml version="1.0" encoding="utf-8"?>
<!-- Generator: Adobe Illustrator 24.0.2, SVG Export Plug-In . SVG Version: 6.00 Build 0)  -->
<svg version="1.1" id="Capa_1" xmlns="http://www.w3.org/2000/svg" xmlns:xlink="http://www.w3.org/1999/xlink" x="0px" y="0px"
	 viewBox="0 0 595.28 116.59" style="enable-background:new 0 0 595.28 116.59;" xml:space="preserve">
<style type="text/css">
	.st0{fill:#372459;}
	.st1{fill:#FFFFFF;}
	.st2{opacity:0.45;fill:#372459;}
</style>
<g>
	<path class="st0" d="M141.17,114.93c1.97-6.28,3.99-12.54,5.88-18.84c2.09-6.95,3.96-13.96,6.13-20.89
		c0.84-2.69,0.37-4.4-1.97-6.14c-10.02-7.45-19.91-15.07-29.85-22.64c-0.59-0.45-1.15-0.96-2.5-2.09c2.13-0.11,3.42-0.23,4.7-0.24
		c12.1-0.18,24.21-0.42,36.31-0.44c2.77-0.01,3.94-0.89,4.73-3.59c3.26-11.12,6.78-22.16,10.27-33.21c0.63-2.01,1.58-3.91,2.84-6.99
		c1.33,3.84,2.34,6.53,3.19,9.27c3.22,10.33,6.48,20.66,9.53,31.04c0.73,2.5,1.81,3.36,4.48,3.37c12.23,0.05,24.46,0.36,36.69,0.58
		c1.1,0.02,2.19,0.12,4.1,0.23c-1.38,1.24-2.13,2-2.97,2.64c-9.72,7.42-19.38,14.94-29.26,22.15c-2.6,1.89-2.85,3.56-1.94,6.37
		c3.77,11.76,7.34,23.58,10.95,35.39c0.39,1.28,0.59,2.62,1.12,5.02c-4.55-3.35-8.23-6.02-11.88-8.74
		c-6.85-5.1-13.77-10.11-20.47-15.4c-2.35-1.86-4.07-1.82-6.36-0.13c-9.83,7.27-19.74,14.44-29.63,21.63
		c-1.1,0.8-2.26,1.52-3.4,2.27C141.66,115.35,141.41,115.14,141.17,114.93z"/>
	<path class="st0" d="M381.01,114.41c1.6-5.33,3.19-10.67,4.82-15.99c2.39-7.79,4.7-15.61,7.27-23.34c0.87-2.62,0.35-4.09-1.86-5.73
		c-10.04-7.42-19.94-15.03-29.88-22.59c-0.77-0.58-1.46-1.27-2.73-2.37c1.77-0.13,2.84-0.27,3.91-0.29
		c12.36-0.23,24.72-0.54,37.08-0.58c2.73-0.01,3.7-0.99,4.44-3.43c3.29-10.98,6.75-21.9,10.21-32.83c0.67-2.1,1.63-4.12,3.41-6.12
		c1.17,3.44,2.4,6.86,3.49,10.32c3.02,9.6,6.1,19.18,8.88,28.85c0.76,2.65,2.02,3.3,4.54,3.32c11.98,0.07,23.96,0.3,35.93,0.48
		c1.37,0.02,2.74,0,5.05,0c-1.34,1.26-1.95,1.96-2.68,2.51c-9.73,7.42-19.42,14.89-29.25,22.17c-2.51,1.86-3.25,3.68-2.32,6.72
		c3.65,11.93,7.1,23.92,10.61,35.9c0.31,1.07,0.52,2.17,1.05,4.39c-2.55-1.82-4.26-2.99-5.91-4.23
		c-8.36-6.27-16.86-12.36-24.99-18.92c-3.46-2.8-6.11-2.59-9.38-0.14c-8.56,6.42-17.21,12.73-25.84,19.07
		c-1.62,1.19-3.29,2.32-4.93,3.48C381.61,114.83,381.31,114.62,381.01,114.41z"/>
	<path class="st2" d="M537.49,0.84c3,9.45,6.01,18.89,8.99,28.34c1.19,3.77,2.5,7.5,3.44,11.33c0.61,2.49,1.92,3.08,4.3,3.09
		c12.11,0.08,24.21,0.31,36.32,0.51c1.22,0.02,2.43,0.13,4.74,0.26c-3.76,2.9-6.73,5.17-9.67,7.47
		c-7.62,5.97-15.21,11.99-22.85,17.94c-2.06,1.6-2.62,3.27-1.79,5.92c3.63,11.67,7.04,23.42,10.51,35.14
		c0.35,1.19,0.61,2.41,1.09,4.29c-1.37-0.74-2.25-1.09-2.98-1.63c-10.02-7.45-20.1-14.84-29.99-22.46
		c-2.28-1.75-3.72-1.61-5.87,0.06c-9.16,7.11-18.43,14.08-27.68,21.07c-1.37,1.04-2.84,1.94-5.01,2.39
		c0.75-2.91,1.41-5.84,2.26-8.72c2.98-10.14,5.9-20.3,9.09-30.37c0.97-3.05,0.38-4.82-2.21-6.73c-9.75-7.18-19.32-14.59-28.95-21.93
		c-0.77-0.58-1.46-1.26-2.82-2.44c2.09-0.13,3.41-0.27,4.74-0.29c11.72-0.18,23.45-0.49,35.17-0.41c3.46,0.02,4.78-1.14,5.7-4.39
		c3.04-10.65,6.43-21.2,9.75-31.77c0.71-2.26,1.7-4.43,2.56-6.64C536.71,0.87,537.1,0.86,537.49,0.84z"/>
	<path class="st0" d="M57.62-0.33c1.11,2.82,1.94,4.63,2.54,6.51C63.77,17.59,67.38,29,70.83,40.46c0.71,2.36,1.8,3.19,4.25,3.17
		c13.37-0.1,26.73-0.05,40.1-0.05c0.47,0.71,0.93,1.42,1.4,2.13c-0.97,0.28-2.11,0.32-2.87,0.89c-9.88,7.42-19.64,15.01-29.59,22.33
		c-2.53,1.86-2.9,3.59-2.03,6.42c3.37,10.95,6.54,21.96,9.76,32.95c0.56,1.92,0.99,3.88,0.79,6.47c-1.38-0.92-2.81-1.79-4.14-2.78
		c-9.29-6.94-18.6-13.84-27.79-20.9c-2.13-1.64-3.56-1.86-5.86-0.08c-9.56,7.42-19.31,14.6-29,21.85c-1,0.74-2.08,1.37-4.05,2.65
		c1.14-4.15,1.97-7.37,2.91-10.56c2.9-9.89,5.76-19.8,8.84-29.64c0.79-2.51,0.24-4.05-1.73-5.57C22.24,62.35,12.7,54.89,3.15,47.46
		C2.1,46.64,1.05,45.82,0,45c0.11-0.31,0.21-0.62,0.32-0.93c1.72,0,3.44,0.02,5.16,0c11.59-0.16,23.18-0.42,34.78-0.42
		c2.7,0,3.7-1,4.44-3.43c3.53-11.7,7.24-23.35,10.9-35.01C56.08,3.68,56.69,2.2,57.62-0.33z"/>
	<path class="st0" d="M261.35,114.22c3.83-12.79,7.57-25.61,11.55-38.36c0.9-2.89,0.47-4.68-1.96-6.52
		c-9.65-7.31-19.17-14.78-28.74-22.2c-0.89-0.69-1.75-1.42-3.46-2.82c2.08-0.12,3.23-0.22,4.39-0.24
		c11.98-0.18,23.96-0.43,35.93-0.44c2.98,0,4.39-0.74,5.29-3.85c3.29-11.37,6.97-22.63,10.54-33.92c0.51-1.62,1.26-3.17,2.35-5.87
		c1.27,3.29,2.23,5.43,2.93,7.66c3.46,10.92,6.93,21.85,10.22,32.83c0.71,2.38,1.81,3.15,4.25,3.16
		c11.98,0.05,23.96,0.29,35.93,0.47c1.35,0.02,2.69,0.11,5.24,0.23c-2.51,1.94-4.16,3.21-5.8,4.49
		c-8.94,6.97-17.85,13.99-26.85,20.89c-2.18,1.67-2.47,3.35-1.66,5.93c3.64,11.67,7.07,23.41,10.55,35.12
		c0.35,1.18,0.61,2.4,1.2,4.73c-2.45-1.64-4.11-2.66-5.66-3.82c-9.09-6.78-18.23-13.51-27.18-20.46c-2.31-1.79-3.76-1.95-6.18-0.09
		c-9.79,7.54-19.79,14.81-29.72,22.16c-0.79,0.58-1.67,1.04-2.51,1.55C261.79,114.63,261.57,114.43,261.35,114.22z"/>
</g>
</svg>
