<?xml version="1.0" encoding="utf-8"?>
<!-- Generator: Adobe Illustrator 26.2.1, SVG Export Plug-In . SVG Version: 6.00 Build 0)  -->
<svg version="1.1" id="Capa_1" xmlns="http://www.w3.org/2000/svg" xmlns:xlink="http://www.w3.org/1999/xlink" x="0px" y="0px"
	 viewBox="0 0 40 40" style="enable-background:new 0 0 40 40;" xml:space="preserve">
<style type="text/css">
	.st0{fill:#1D1D1B;}
	.st1{fill:none;stroke:#FFFFFF;stroke-width:1.5294;stroke-miterlimit:10;}
	.st2{fill:none;stroke:#FFFFFF;stroke-width:1.6799;stroke-miterlimit:10;}
	.st3{fill:#FFFFFF;stroke:#FFFFFF;stroke-width:0.3207;stroke-miterlimit:10;}
	.st4{fill:#FFFFFF;}
</style>
<g>
	<path class="st0" d="M27.98,33.21H10.77c-2.54,0-4.6-2.06-4.6-4.6V11.4c0-2.54,2.06-4.6,4.6-4.6h17.21c2.54,0,4.6,2.06,4.6,4.6
		V28.6C32.58,31.15,30.52,33.21,27.98,33.21z"/>
	<g>
		<path class="st4" d="M20.09,16.5c-0.03-2.25,0.78-3.58,1.67-4.36c0.82-0.72,1.89-1.08,2.98-1.08h3.55v3.71h-2.65
			c-1.47,0.15-1.33,1.73-1.33,1.73v16.7h-4.22V16.5z"/>
		<polygon class="st4" points="27.75,23.1 16.7,23.1 16.7,19.11 28.29,19.11 		"/>
	</g>
</g>
</svg>
