<?xml version="1.0" encoding="UTF-8"?><svg xmlns="http://www.w3.org/2000/svg" viewBox="0 0 40 40"><defs><style>.d{fill:#37195a;}</style></defs><g id="a"><path class="d" d="M27.98,6.79H10.77c-2.54,0-4.6,2.06-4.6,4.6V28.6c0,2.54,2.06,4.6,4.6,4.6h9.31v-10.1h-3.39v-3.99h3.39v-2.61c-.03-2.25,.78-3.58,1.67-4.36,.82-.72,1.89-1.08,2.98-1.08h3.55v3.71h-2.65c-1.47,.15-1.33,1.73-1.33,1.73v2.61h3.98l-.54,3.99h-3.44v10.1h3.67c2.54,0,4.6-2.06,4.6-4.6V11.4c0-2.54-2.06-4.6-4.6-4.6Z"/></g><g id="b"/><g id="c"/></svg>