<svg xmlns="http://www.w3.org/2000/svg" viewBox="0 0 90 90"><defs><style>.cls-1{fill:#fff;}.cls-2{fill:#1d1d1b;}</style></defs><title>icono-bolsa</title><g id="_2scroll" data-name="2scroll"><rect class="cls-1" x="11.44" y="25.07" width="65.18" height="61.48" rx="0.55"/><path class="cls-2" d="M74.82,90H13.24A5.26,5.26,0,0,1,8,84.75V26.87a5.25,5.25,0,0,1,5.25-5.25H74.82a5.25,5.25,0,0,1,5.25,5.25V84.75A5.26,5.26,0,0,1,74.82,90ZM14.89,83.09H73.17V28.52H14.89Z"/><path class="cls-2" d="M56.5,42a3.2,3.2,0,0,1-3.2-3.2V14.64C53.3,10.1,49.14,6.4,44,6.4s-9.26,3.7-9.26,8.24V38.75a3.21,3.21,0,0,1-6.41,0V14.64C28.36,6.57,35.39,0,44,0S59.7,6.57,59.7,14.64V38.75A3.2,3.2,0,0,1,56.5,42Z"/></g></svg>