<svg xmlns="http://www.w3.org/2000/svg" viewBox="0 0 90 90"><defs><style>.cls-1{fill:#fff;}.cls-2{fill:#1d1d1b;}</style></defs><title>icono-seguimiento</title><g id="_2scroll" data-name="2scroll"><path class="cls-1" d="M72.59,76.65,44.79,87.89a.05.05,0,0,1-.08,0V55.36a.07.07,0,0,1,0-.06L71.62,44.44a1.29,1.29,0,0,1,1.78,1.19V75.45A1.29,1.29,0,0,1,72.59,76.65Z"/><path class="cls-2" d="M44.54,90.09,42.79,88.9l0-1.06V54L44,53.5,70.9,42.63a3.24,3.24,0,0,1,4.45,3V75.45a3.24,3.24,0,0,1-2,3h0Zm2.12-33.46V85l24.8-10V46.6Zm25.2,18.22Z"/><path class="cls-1" d="M16.83,76.65,44.64,87.89s.07,0,.07,0V55.36a.06.06,0,0,0,0-.06L17.8,44.44A1.28,1.28,0,0,0,16,45.63V75.45A1.3,1.3,0,0,0,16.83,76.65Z"/><path class="cls-2" d="M45,90.06l-1-.34L16.11,78.45a3.24,3.24,0,0,1-2-3V45.63a3.24,3.24,0,0,1,4.45-3L46.62,54l0,1.36v33.5ZM18,75l24.8,10V56.63L18,46.6Zm-.41-.16h0Z"/><path class="cls-1" d="M35.37,65,8.05,54a.38.38,0,0,1-.14-.61l7.45-8c.81-1.1,1.4-1.33,2.31-1l24.76,10a1.77,1.77,0,0,1,1,2.3L35.78,65A.35.35,0,0,1,35.37,65Z"/><path class="cls-2" d="M35.51,66.93a2.19,2.19,0,0,1-.83-.16h0l-27.31-11a2.23,2.23,0,0,1-.8-3.6l7.45-8a3.47,3.47,0,0,1,4.36-1.42l24.76,10a3.62,3.62,0,0,1,2,4.71l-.36.57-7.65,8.19A2.19,2.19,0,0,1,35.51,66.93ZM10.74,53.1l24.38,9.84L41.58,56,17.09,46.24l-.23.3ZM9.28,54.67h0Z"/><path class="cls-1" d="M54.57,65.62l27-10.91a.37.37,0,0,0,.14-.6l-7.41-8c-.81-1.09-1.39-1.33-2.3-1L47.52,55a1.77,1.77,0,0,0-1,2.29l7.61,8.2A.38.38,0,0,0,54.57,65.62Z"/><path class="cls-2" d="M54.43,67.5a2.22,2.22,0,0,1-1.64-.72l-8-8.76a3.61,3.61,0,0,1,2-4.69l24.51-9.9A3.59,3.59,0,0,1,75.81,45l7.29,7.83a2.23,2.23,0,0,1-.8,3.57l-27,10.91A2.2,2.2,0,0,1,54.43,67.5Zm1.07-3.24v0Zm-1.62-.35h0Zm-5.44-7.25,6.37,6.87,24.12-9.74-6-6.42-.37-.46Z"/><path class="cls-1" d="M17,44.06,43.63,33.6,72,44.45a.14.14,0,0,1,0,.26L44.72,54.94,17,44.31A.13.13,0,0,1,17,44.06Z"/><path class="cls-2" d="M44.72,57.3l-30-11.47-.09-3.16L16.15,42,43.62,31.23,74.25,42.94l.07,1.67,0,1.52-1.52.65Zm-22-13.14,22,8.41,21.38-8L43.64,36Z"/><path class="cls-1" d="M60.94,18.42a16.22,16.22,0,0,0-32.41-1.13,16.39,16.39,0,0,0,.69,6C31.79,33.63,40.14,40.71,43.4,43.14a2,2,0,0,0,2.52-.1C62.13,28.88,60.94,18.42,60.94,18.42Z"/><path class="cls-2" d="M44.59,45.47a3.94,3.94,0,0,1-2.36-.77C38.65,42,30,34.64,27.34,23.72a18,18,0,0,1-.75-6.56,18.17,18.17,0,0,1,36.29,1.18c.1,1.39.31,12.19-15.68,26.16A4,4,0,0,1,44.59,45.47Zm.13-41.32-1,0a14.29,14.29,0,0,0-12.62,18.5c2.43,9.81,10.23,16.48,13.48,18.9C59.66,28.45,59,18.74,59,18.64l0-.21A14.27,14.27,0,0,0,44.72,4.15Z"/><circle class="cls-1" cx="44.49" cy="18.05" r="7.74"/><path class="cls-2" d="M44.49,27.73a9.69,9.69,0,1,1,9.69-9.68A9.69,9.69,0,0,1,44.49,27.73Zm0-15.48a5.8,5.8,0,1,0,5.8,5.8A5.81,5.81,0,0,0,44.49,12.25Z"/><path class="cls-2" d="M55.38,45.87H33.6a1.95,1.95,0,0,1,0-3.89H55.38a1.95,1.95,0,1,1,0,3.89Z"/></g></svg>