<svg xmlns="http://www.w3.org/2000/svg" viewBox="0 0 90 78.51"><defs><style>.cls-1{fill:#fff;}.cls-2{fill:#1d1d1b;}</style></defs><title>icono-comentarios</title><g id="_2scroll" data-name="2scroll"><path class="cls-1" d="M77.76,12.29h-53a9.91,9.91,0,0,0-9.91,9.91V52.62a9.91,9.91,0,0,0,9.91,9.9H55.22L76.45,76.06a.69.69,0,0,0,1.07-.58v-13h.24a9.91,9.91,0,0,0,9.91-9.9V22.2A9.91,9.91,0,0,0,77.76,12.29Z"/><path class="cls-2" d="M76.82,78.51A3,3,0,0,1,75.19,78L54.54,64.85H24.73A12.24,12.24,0,0,1,12.49,52.62V22.2A12.25,12.25,0,0,1,24.73,10h53A12.25,12.25,0,0,1,90,22.2V52.62A12.27,12.27,0,0,1,79.85,64.68v10.8a3,3,0,0,1-1.57,2.65A3.06,3.06,0,0,1,76.82,78.51ZM24.73,14.63a7.58,7.58,0,0,0-7.58,7.57V52.62a7.59,7.59,0,0,0,7.58,7.57H55.9l19.28,12.3V60.19h2.34a7.63,7.63,0,0,0,7.81-7.57V22.2a7.57,7.57,0,0,0-7.57-7.57Z"/><path class="cls-1" d="M17.73,2.85l3.47,7a1.28,1.28,0,0,0,1,.7l7.75,1.13a1.29,1.29,0,0,1,.71,2.2L25,19.37a1.24,1.24,0,0,0-.37,1.14L26,28.23a1.29,1.29,0,0,1-1.87,1.36l-6.93-3.65a1.27,1.27,0,0,0-1.2,0L9.05,29.59a1.3,1.3,0,0,1-1.88-1.36L8.5,20.51a1.29,1.29,0,0,0-.37-1.14L2.52,13.9a1.29,1.29,0,0,1,.72-2.2L11,10.57a1.3,1.3,0,0,0,1-.7l3.46-7A1.29,1.29,0,0,1,17.73,2.85Z"/><path class="cls-2" d="M24.71,31.87a3.35,3.35,0,0,1-1.59-.4L16.58,28,10,31.47a3.42,3.42,0,0,1-5-3.6l1.25-7.29L1,15.42a3.38,3.38,0,0,1-.87-3.5A3.4,3.4,0,0,1,2.93,9.59l7.31-1.06,3.27-6.62A3.4,3.4,0,0,1,16.58,0h0a3.39,3.39,0,0,1,3.06,1.91l3.27,6.62,7.32,1.06a3.42,3.42,0,0,1,1.89,5.83l-5.29,5.16,1.25,7.28a3.41,3.41,0,0,1-1.36,3.35A3.45,3.45,0,0,1,24.71,31.87Zm-8.13-8.2a3.46,3.46,0,0,1,1.59.39l5.43,2.85-1-6a3.4,3.4,0,0,1,1-3l4.38-4.28-6.06-.88a3.4,3.4,0,0,1-2.58-1.88L16.58,5.31l-2.72,5.5a3.4,3.4,0,0,1-2.57,1.87l-6.07.88,4.39,4.29a3.39,3.39,0,0,1,1,3l-1,6L15,24.06A3.43,3.43,0,0,1,16.58,23.67ZM6.64,20.89h0Zm19.88,0h0Zm-3.41-12h0ZM15.82,3.79h0Z"/><rect class="cls-2" x="31.85" y="23.69" width="46.49" height="4.86" rx="0.93"/><rect class="cls-2" x="31.85" y="34.34" width="46.49" height="4.86" rx="0.93"/><rect class="cls-2" x="31.85" y="45.46" width="46.49" height="4.86" rx="0.93"/></g></svg>