<svg xmlns="http://www.w3.org/2000/svg" viewBox="0 0 90 51.54"><defs><style>.cls-1{fill:#fff;}</style></defs><title>icono-metodos</title><g id="_2scroll" data-name="2scroll"><rect class="cls-1" x="28.18" y="2.15" width="59.67" height="39.84" rx="2.89"/><path d="M80.84,44.15H35.19A9.17,9.17,0,0,1,26,35V9.16A9.17,9.17,0,0,1,35.19,0H80.84A9.17,9.17,0,0,1,90,9.16V35A9.17,9.17,0,0,1,80.84,44.15ZM35.19,4.31a4.86,4.86,0,0,0-4.86,4.85V35a4.86,4.86,0,0,0,4.86,4.85H80.84A4.85,4.85,0,0,0,85.69,35V9.16a4.85,4.85,0,0,0-4.85-4.85Z"/><rect x="27.42" y="10.21" width="59.72" height="9.44"/><path d="M78.72,36.31H70a2.11,2.11,0,0,1,0-4.22h8.68a2.11,2.11,0,1,1,0,4.22Z"/><path d="M61.88,36.3a2.11,2.11,0,0,1-1.5-3.59,2.27,2.27,0,0,1,.68-.46,2.17,2.17,0,0,1,2.3.46A2.12,2.12,0,0,1,64,34.19a2.15,2.15,0,0,1-.61,1.5A2.12,2.12,0,0,1,61.88,36.3Z"/><circle class="cls-1" cx="21.41" cy="30.13" r="19.18"/><path d="M21.41,51.54A21.41,21.41,0,1,1,42.83,30.13,21.43,21.43,0,0,1,21.41,51.54Zm0-38.36a17,17,0,1,0,17,17A17,17,0,0,0,21.41,13.18Z"/><path d="M28.36,34.29a6.61,6.61,0,0,1-.62,2.93,6.24,6.24,0,0,1-1.69,2.11,7.51,7.51,0,0,1-2.49,1.27,10.76,10.76,0,0,1-3,.42,10.91,10.91,0,0,1-2-.18,11.37,11.37,0,0,1-1.66-.43,7.74,7.74,0,0,1-1.2-.53,3.11,3.11,0,0,1-.7-.5,1.21,1.21,0,0,1-.3-.61,5.64,5.64,0,0,1-.09-1.16c0-.33,0-.62,0-.85a2.21,2.21,0,0,1,.11-.55.55.55,0,0,1,.19-.31.48.48,0,0,1,.29-.09,1.39,1.39,0,0,1,.65.27,10.29,10.29,0,0,0,1.07.6,9.81,9.81,0,0,0,1.56.6,7.46,7.46,0,0,0,2.11.27,4.76,4.76,0,0,0,1.41-.19,3.05,3.05,0,0,0,1-.53,2.33,2.33,0,0,0,.67-.85,2.78,2.78,0,0,0,.23-1.13,1.94,1.94,0,0,0-.4-1.24,4,4,0,0,0-1-.92A10,10,0,0,0,21,31.94c-.54-.24-1.09-.48-1.66-.75a14.55,14.55,0,0,1-1.65-.89,6.39,6.39,0,0,1-1.44-1.2,5.55,5.55,0,0,1-1-1.64,6,6,0,0,1-.39-2.28,6,6,0,0,1,.56-2.68A5.44,5.44,0,0,1,17,20.59a6.34,6.34,0,0,1,2.26-1.14A9.84,9.84,0,0,1,22,19.07a10.81,10.81,0,0,1,1.5.11,10.48,10.48,0,0,1,1.41.32,7.17,7.17,0,0,1,1.17.44,2.75,2.75,0,0,1,.67.41,1.14,1.14,0,0,1,.22.28,1.16,1.16,0,0,1,.1.3,4.53,4.53,0,0,1,.05.47c0,.2,0,.43,0,.72s0,.58,0,.8a3,3,0,0,1-.09.54.57.57,0,0,1-.16.31.39.39,0,0,1-.29.1,1.4,1.4,0,0,1-.57-.23c-.26-.15-.58-.32-1-.5a9.44,9.44,0,0,0-1.32-.49,5.85,5.85,0,0,0-1.66-.22,4.11,4.11,0,0,0-1.23.17,2.43,2.43,0,0,0-.87.48,1.88,1.88,0,0,0-.53.72,2.53,2.53,0,0,0-.17.91,2,2,0,0,0,.39,1.22,3.54,3.54,0,0,0,1,.91,11.66,11.66,0,0,0,1.46.76c.55.23,1.11.48,1.68.74a16,16,0,0,1,1.67.9,6.67,6.67,0,0,1,1.45,1.19,5.73,5.73,0,0,1,1,1.64A5.79,5.79,0,0,1,28.36,34.29Z"/><path d="M20.51,41.26a10.37,10.37,0,0,1-2.08-.19,11.93,11.93,0,0,1-1.7-.44,7.35,7.35,0,0,1-1.24-.55,3.89,3.89,0,0,1-.75-.53,1.49,1.49,0,0,1-.37-.73,6.23,6.23,0,0,1-.09-1.2c0-.34,0-.63,0-.88a3.27,3.27,0,0,1,.12-.61.89.89,0,0,1,.28-.42c.28-.2.64-.19,1.2.17a10.18,10.18,0,0,0,1.06.59,9,9,0,0,0,1.52.58,7.33,7.33,0,0,0,2,.26,4.57,4.57,0,0,0,1.34-.18,2.74,2.74,0,0,0,1-.49,1.91,1.91,0,0,0,.59-.76,2.46,2.46,0,0,0,.21-1,1.78,1.78,0,0,0-.34-1.1,3.71,3.71,0,0,0-1-.86,10.72,10.72,0,0,0-1.4-.74l-1.66-.74a16.21,16.21,0,0,1-1.68-.91,6.77,6.77,0,0,1-1.48-1.24,5.7,5.7,0,0,1-1.07-1.71,6.28,6.28,0,0,1-.41-2.37,6.28,6.28,0,0,1,.59-2.78,5.69,5.69,0,0,1,1.59-2,6.88,6.88,0,0,1,2.34-1.18A10.22,10.22,0,0,1,23.53,19a11.74,11.74,0,0,1,1.44.32,8.16,8.16,0,0,1,1.2.46,2.75,2.75,0,0,1,.73.45,1.41,1.41,0,0,1,.27.34,1.38,1.38,0,0,1,.12.36,3.25,3.25,0,0,1,.06.51c0,.2,0,.44,0,.73s0,.6,0,.82a3.74,3.74,0,0,1-.09.58A.93.93,0,0,1,27,24c-.22.2-.5.27-1.14-.11-.25-.14-.56-.3-.95-.49a9.06,9.06,0,0,0-1.29-.47,5.66,5.66,0,0,0-1.59-.22,3.57,3.57,0,0,0-1.15.17,2.25,2.25,0,0,0-.8.42,1.69,1.69,0,0,0-.46.64,2.25,2.25,0,0,0-.15.82,1.75,1.75,0,0,0,.33,1.07,3.56,3.56,0,0,0,1,.86,10.71,10.71,0,0,0,1.44.74c.55.24,1.1.48,1.67.75a16.15,16.15,0,0,1,1.7.9,7.24,7.24,0,0,1,1.51,1.24A6,6,0,0,1,28.18,32a5.84,5.84,0,0,1,.42,2.31,6.8,6.8,0,0,1-.65,3,6.44,6.44,0,0,1-1.75,2.18,7.71,7.71,0,0,1-2.57,1.31A10.89,10.89,0,0,1,20.51,41.26Zm-5.37-5.21a.24.24,0,0,0-.15,0,.44.44,0,0,0-.11.19,3.27,3.27,0,0,0-.1.51c0,.22,0,.5,0,.83a5.13,5.13,0,0,0,.09,1.1,1,1,0,0,0,.24.5,3.18,3.18,0,0,0,.64.45,7.34,7.34,0,0,0,1.17.52,12.37,12.37,0,0,0,1.63.42,10.25,10.25,0,0,0,2,.17,10.62,10.62,0,0,0,3-.41,7,7,0,0,0,2.41-1.23,6,6,0,0,0,1.63-2,6.47,6.47,0,0,0,.59-2.83,5.52,5.52,0,0,0-.37-2.13,5.37,5.37,0,0,0-1-1.57,6.57,6.57,0,0,0-1.41-1.15,15.11,15.11,0,0,0-1.64-.88L22,27.81a11,11,0,0,1-1.5-.77,3.83,3.83,0,0,1-1.09-1A2.21,2.21,0,0,1,19,24.71a2.72,2.72,0,0,1,.19-1,2.11,2.11,0,0,1,.59-.82,2.61,2.61,0,0,1,1-.52,4,4,0,0,1,1.3-.19,6.22,6.22,0,0,1,1.72.23,8.83,8.83,0,0,1,1.36.51,8.86,8.86,0,0,1,1,.51,1.18,1.18,0,0,0,.45.19.24.24,0,0,0,.13,0,.47.47,0,0,0,.1-.2,4,4,0,0,0,.07-.5c0-.21,0-.47,0-.78s0-.51,0-.7a3.62,3.62,0,0,0-.05-.44,1.48,1.48,0,0,0-.08-.25,1.28,1.28,0,0,0-.18-.21,2.14,2.14,0,0,0-.61-.37,8.41,8.41,0,0,0-1.13-.43,10.63,10.63,0,0,0-1.37-.3,9.61,9.61,0,0,0-4.17.25,6.58,6.58,0,0,0-2.18,1.1,5.3,5.3,0,0,0-1.46,1.84,5.9,5.9,0,0,0-.54,2.57,5.73,5.73,0,0,0,.38,2.19,5.35,5.35,0,0,0,1,1.58,6.65,6.65,0,0,0,1.38,1.15,14.33,14.33,0,0,0,1.63.88l1.65.74a11.82,11.82,0,0,1,1.47.77,4,4,0,0,1,1.08,1,2.23,2.23,0,0,1,.44,1.38,2.9,2.9,0,0,1-.25,1.22,2.33,2.33,0,0,1-.73.94,3.44,3.44,0,0,1-1.13.58,5.19,5.19,0,0,1-1.48.2,7.83,7.83,0,0,1-2.17-.28,10.06,10.06,0,0,1-1.61-.62,10.71,10.71,0,0,1-1.09-.61A1.11,1.11,0,0,0,15.14,36.05Z"/><path d="M21.41,20.66a1.59,1.59,0,0,1-1.58-1.59V16.86a1.59,1.59,0,1,1,3.17,0v2.21A1.59,1.59,0,0,1,21.41,20.66Z"/><path d="M21.41,44.81a1.58,1.58,0,0,1-1.58-1.58V41A1.59,1.59,0,0,1,23,41v2.22A1.58,1.58,0,0,1,21.41,44.81Z"/></g></svg>