<svg xmlns="http://www.w3.org/2000/svg" viewBox="0 0 90 90"><defs><style>.cls-1{fill:#fff;}.cls-2{fill:#1d1d1b;}</style></defs><title>icono-lista</title><g id="_2scroll" data-name="2scroll"><rect class="cls-1" x="14.4" y="11.97" width="62.28" height="74.7" rx="0.6"/><path class="cls-2" d="M74.79,90H16.28a5.22,5.22,0,0,1-5.22-5.22V13.85a5.22,5.22,0,0,1,5.22-5.22H74.79A5.22,5.22,0,0,1,80,13.85V84.78A5.22,5.22,0,0,1,74.79,90ZM17.73,83.33H73.34v-68H17.73Z"/><path class="cls-2" d="M31.1,43.41l-6.33-6.73a3.82,3.82,0,0,1-1.07-3c0-.11,0-.23.05-.35A4.22,4.22,0,0,1,27.4,30a4.16,4.16,0,0,1,3.72,1.55A4.17,4.17,0,0,1,38.4,33c0,.11.06.22.08.33a3.85,3.85,0,0,1-1,3.38Z"/><path class="cls-2" d="M31.1,59.25l-6.33-6.72a3.82,3.82,0,0,1-1.07-3c0-.12,0-.24.05-.35a4.18,4.18,0,0,1,7.37-1.81A4.18,4.18,0,0,1,38.4,48.8c0,.11.06.23.08.34a3.86,3.86,0,0,1-1,3.38Z"/><path class="cls-2" d="M31.1,75.1l-6.33-6.73a3.82,3.82,0,0,1-1.07-3c0-.11,0-.23.05-.35a4.22,4.22,0,0,1,3.65-3.35,4.16,4.16,0,0,1,3.72,1.55,4.17,4.17,0,0,1,7.28,1.45c0,.11.06.22.08.33a3.85,3.85,0,0,1-1,3.38Z"/><rect class="cls-2" x="44.47" y="33.46" width="24.9" height="5.16" rx="0.82"/><rect class="cls-2" x="44.47" y="49.94" width="24.9" height="5.16" rx="0.82"/><rect class="cls-2" x="44.47" y="65.78" width="24.9" height="5.16" rx="0.82"/><path class="cls-2" d="M56,4.38H66.39a.26.26,0,0,1,.26.26V9.28a.26.26,0,0,1-.26.26H56a.82.82,0,0,1-.82-.82V5.2A.82.82,0,0,1,56,4.38Z" transform="translate(67.85 -53.94) rotate(90)"/><path class="cls-2" d="M40.76,4.38H51.19a.26.26,0,0,1,.26.26V9.28a.26.26,0,0,1-.26.26H40.76a.82.82,0,0,1-.82-.82V5.2a.82.82,0,0,1,.82-.82Z" transform="translate(52.65 -38.74) rotate(90)"/><path class="cls-2" d="M23.6,4.38H34a.26.26,0,0,1,.26.26V9.28a.26.26,0,0,1-.26.26H23.6a.82.82,0,0,1-.82-.82V5.2A.82.82,0,0,1,23.6,4.38Z" transform="translate(35.49 -21.57) rotate(90)"/></g></svg>