<svg xmlns="http://www.w3.org/2000/svg" viewBox="0 0 90 90"><defs><style>.cls-1{fill:#fff;}.cls-2{fill:#1d1d1b;}</style></defs><title>icono-direcciones</title><g id="_2scroll" data-name="2scroll"><ellipse class="cls-1" cx="45.64" cy="76.76" rx="34.65" ry="9.93"/><path class="cls-2" d="M45.64,90c-14.1,0-38-2.79-38-13.24s23.86-13.24,38-13.24,38,2.79,38,13.24S59.74,90,45.64,90Zm0-19.86c-20.43,0-30.7,4.8-31.34,6.71.64,1.73,10.91,6.52,31.34,6.52C65.75,83.37,76,78.72,77,76.76,76,74.79,65.75,70.14,45.64,70.14Z"/><path class="cls-1" d="M73.28,31a27.65,27.65,0,1,0-54.06,8.24C23.59,56.89,37.83,69,43.38,73.11a3.43,3.43,0,0,0,4.3-.18C75.31,48.79,73.28,31,73.28,31Z"/><path class="cls-2" d="M45.41,77.09a6.68,6.68,0,0,1-4-1.33C35.29,71.21,20.6,58.6,16,40a30.66,30.66,0,0,1-1.27-11.18A31,31,0,0,1,43.45.08,30.66,30.66,0,0,1,66.76,8.33a31.12,31.12,0,0,1,9.83,22.5c.18,2.37.53,20.78-26.73,44.6A6.76,6.76,0,0,1,45.41,77.09Zm.23-70.46q-.87,0-1.74.06A24.35,24.35,0,0,0,22.38,38.22c4.14,16.72,17.45,28.1,23,32.23C71.18,48,70,31.47,70,31.31V31A24.36,24.36,0,0,0,45.64,6.63Z"/><circle class="cls-1" cx="45.25" cy="30.33" r="13.2"/><path class="cls-2" d="M45.25,46.27a15.95,15.95,0,1,1,16-15.94A16,16,0,0,1,45.25,46.27Zm0-26.4A10.46,10.46,0,1,0,55.71,30.33,10.48,10.48,0,0,0,45.25,19.87Z"/></g></svg>