<?xml version="1.0" encoding="UTF-8"?><svg xmlns="http://www.w3.org/2000/svg" viewBox="0 0 40 40"><defs><style>.d{fill:#341f59;}</style></defs><g id="a"><g><path class="d" d="M19.53,33.2c-2.12,0-4.23,0-6.35,0-3.88,0-6.85-2.96-6.85-6.83,0-4.25,0-8.5,0-12.75,0-3.87,2.98-6.83,6.86-6.83,4.22,0,8.44,0,12.66,0,3.94,0,6.9,2.95,6.9,6.88,0,4.23,0,8.47,0,12.7,0,3.87-2.98,6.83-6.85,6.84-2.12,0-4.23,0-6.35,0Zm0-1.89c2.15,0,4.3,0,6.44,0,.03,0,.06,0,.09,0,2.6-.03,4.77-2.16,4.78-4.75,.02-4.37,.02-8.75,0-13.12-.01-2.6-2.17-4.75-4.77-4.76-4.36-.01-8.71-.01-13.07,0-2.62,0-4.78,2.17-4.78,4.79-.01,4.33-.01,8.65,0,12.98,0,2.71,2.15,4.85,4.86,4.86,2.15,0,4.3,0,6.44,0Z"/><path class="d" d="M12.8,20c-.02-3.68,2.98-6.71,6.67-6.73,3.75-.02,6.75,2.95,6.78,6.71,.02,3.67-2.99,6.72-6.67,6.73-3.76,.01-6.76-2.95-6.78-6.71Zm11.54,0c0-2.67-2.16-4.83-4.83-4.83-2.64,0-4.8,2.17-4.81,4.81,0,2.67,2.16,4.83,4.83,4.83,2.64,0,4.81-2.17,4.81-4.81Z"/><path class="d" d="M26.93,10.98c.91,0,1.61,.7,1.61,1.61,0,.9-.71,1.62-1.6,1.63-.89,0-1.63-.72-1.64-1.6-.01-.92,.71-1.64,1.64-1.64Z"/></g></g><g id="b"/><g id="c"/></svg>