<?xml version="1.0" encoding="utf-8"?>
<!-- Generator: Adobe Illustrator 26.2.1, SVG Export Plug-In . SVG Version: 6.00 Build 0)  -->
<svg version="1.1" id="Capa_1" xmlns="http://www.w3.org/2000/svg" xmlns:xlink="http://www.w3.org/1999/xlink" x="0px" y="0px"
	 viewBox="0 0 40 40" style="enable-background:new 0 0 40 40;" xml:space="preserve">
<style type="text/css">
	.st0{fill:#1D1D1B;}
	.st1{fill:none;stroke:#FFFFFF;stroke-width:1.5294;stroke-miterlimit:10;}
	.st2{fill:none;stroke:#FFFFFF;stroke-width:1.6799;stroke-miterlimit:10;}
	.st3{fill:#FFFFFF;stroke:#FFFFFF;stroke-width:0.3207;stroke-miterlimit:10;}
	.st4{fill:#FFFFFF;}
</style>
<g>
	<path class="st0" d="M28.53,33.21H11.32c-2.54,0-4.6-2.06-4.6-4.6V11.4c0-2.54,2.06-4.6,4.6-4.6h17.21c2.54,0,4.6,2.06,4.6,4.6
		V28.6C33.13,31.15,31.07,33.21,28.53,33.21z"/>
	<circle class="st1" cx="19.93" cy="20" r="5.26"/>
	<path class="st2" d="M24.24,29.66h-8.49c-3.29,0-5.97-2.67-5.97-5.97v-7.48c0-3.29,2.67-5.97,5.97-5.97h8.49
		c3.29,0,5.97,2.67,5.97,5.97v7.48C30.2,26.99,27.53,29.66,24.24,29.66z"/>
	<circle class="st3" cx="25.84" cy="14.17" r="1.1"/>
</g>
</svg>
