<?xml version="1.0" encoding="utf-8"?>
<!-- Generator: Adobe Illustrator 24.0.2, SVG Export Plug-In . SVG Version: 6.00 Build 0)  -->
<svg version="1.1" id="Capa_1" xmlns="http://www.w3.org/2000/svg" xmlns:xlink="http://www.w3.org/1999/xlink" x="0px" y="0px"
	 viewBox="0 0 595.28 595.28" style="enable-background:new 0 0 595.28 595.28;" xml:space="preserve">
<style type="text/css">
	.st0{fill:#372459;}
	.st1{fill:#FFFFFF;}
</style>
<g>
	<g id="b_1_">
		<g>
			<g>
				<path class="st0" d="M66.84,269.43c-10.13-30.73,9.61-75.37,47.38-110.05c45.15-41.38,112.11-63.69,138.89-34.51
					c1.37,1.55,2.58,3.09,3.78,4.81c-22.32,4.64-73.14,20.95-84.3,76.57c-11.67,58.03-81.38,63.01-105.76,63.01L66.84,269.43z"/>
				<path class="st0" d="M84.53,302.39c-4.46-4.81-7.55-10.47-9.61-16.48c24.38,0,94.08-4.98,105.76-63.01
					c11.16-55.63,61.98-72.11,84.3-76.57c0.86,1.2,1.55,2.4,2.4,3.61c17.68,30.9,1.72,81.72-39.49,119.49
					c-45.15,41.38-116.4,62.32-143.18,33.13L84.53,302.39z"/>
			</g>
			<g>
				<path class="st0" d="M370.11,162.76c-7.27-22.05,6.9-54.08,34-78.97c32.4-29.69,80.45-45.71,99.67-24.76
					c0.99,1.11,1.85,2.22,2.71,3.45C490.47,65.8,454.01,77.5,446,117.42c-8.38,41.64-58.4,45.21-75.89,45.21L370.11,162.76z"/>
				<path class="st0" d="M382.8,186.41c-3.2-3.45-5.42-7.52-6.9-11.83c17.49,0,67.51-3.57,75.89-45.21
					c8.01-39.92,44.47-51.74,60.49-54.95c0.62,0.86,1.11,1.72,1.72,2.59c12.69,22.18,1.23,58.64-28.34,85.75
					c-32.4,29.69-83.53,44.72-102.75,23.78L382.8,186.41z"/>
			</g>
			<g>
				<path class="st0" d="M157.92,505.02c-15.06-45.68,14.29-112.03,70.43-163.58c67.12-61.5,166.64-94.68,206.45-51.29
					c2.04,2.3,3.83,4.59,5.61,7.15c-33.18,6.89-108.71,31.13-125.3,113.82c-17.35,86.26-120.96,93.66-157.2,93.66L157.92,505.02z"/>
				<path class="st0" d="M184.21,554.02c-6.64-7.15-11.23-15.57-14.29-24.5c36.24,0,139.85-7.4,157.2-93.66
					c16.59-82.68,92.13-107.18,125.3-113.82c1.28,1.79,2.3,3.57,3.57,5.36c26.29,45.94,2.55,121.47-58.69,177.62
					c-67.12,61.5-173.02,92.64-212.83,49.25L184.21,554.02z"/>
			</g>
		</g>
	</g>
</g>
</svg>
