<?xml version="1.0" encoding="UTF-8"?><svg xmlns="http://www.w3.org/2000/svg" viewBox="0 0 40 40"><defs><style>.d{fill:#341f59;}.e{fill:#f3f3f3;}</style></defs><g id="a"><ellipse class="d" cx="20" cy="20" rx="15.85" ry="16.19"/><g><path class="e" d="M12.35,24.43l-.92,.92c-.18,.18-.31,.4-.37,.64l-.87,3.1c-.07,.24,.15,.46,.39,.39l3.1-.87c.24-.07,.46-.2,.64-.37l.92-.92-2.88-2.88Z"/><g><rect class="e" x="12.71" y="17.35" width="15.16" height="4.09" transform="translate(-7.77 20.03) rotate(-45)"/><path class="e" d="M30.36,10.75l-1.42-1.42c-.41-.41-1.07-.41-1.47,0l-2.61,2.61,2.89,2.89,2.61-2.61c.41-.41,.41-1.07,0-1.47Z"/></g></g></g><g id="b"/><g id="c"/></svg>