<?xml version="1.0" encoding="utf-8"?>
<!-- Generator: Adobe Illustrator 24.0.2, SVG Export Plug-In . SVG Version: 6.00 Build 0)  -->
<svg version="1.1" id="Capa_1" xmlns="http://www.w3.org/2000/svg" xmlns:xlink="http://www.w3.org/1999/xlink" x="0px" y="0px"
	 viewBox="0 0 595.28 595.28" style="enable-background:new 0 0 595.28 595.28;" xml:space="preserve">
<style type="text/css">
	.st0{fill:#372459;}
	.st1{fill:#FFFFFF;}
</style>
<g>
	<path class="st0" d="M307.61,255.96c40.81,55.9,79.61,107.73,104.12,168.36c17.27,42.73,9.21,81.56-22.22,114.18
		c-32.96,34.21-73.99,43.41-118.4,27.2c-42.84-15.64-67.16-47.92-71.87-93.67c-3-29.07,8.4-55.04,22.55-78.9
		C248.74,347.65,277.76,303.4,307.61,255.96z M306.08,541.15c12.08,0.61,20.19-5.51,21.28-16.03c1.13-10.98-4.88-17.96-17.16-19.91
		c-27.44-4.37-38.03-14.88-41.74-41.43c-1.73-12.35-8.52-18.5-19.63-17.78c-10.93,0.71-16.48,7.65-16.49,20.6
		C232.31,505.76,265.28,539.1,306.08,541.15z"/>
	<path class="st0" d="M438.33,25.83c33.91,46.61,68.32,90.95,87.43,144.28c16.71,46.63-7.15,96.43-52.83,113.85
		c-47.33,18.06-100.48-3.6-120.22-48.72c-11.83-27.03-8.81-53.18,3.17-79.22C377.23,109.61,406.7,68.39,438.33,25.83z
		 M435.54,263.58c9.25,0.98,16.75-3.04,17.88-13.44c1.12-10.36-5.32-15.27-15.46-17.09c-22.91-4.1-30.19-11.32-34.34-34.3
		c-1.86-10.3-6.99-16.37-17.27-15.18c-10.47,1.21-13.63,8.9-13.32,18.99C374.02,234.6,402.53,263.07,435.54,263.58z"/>
	<path class="st0" d="M144.79,124.96c34.76,48.63,70.69,93.74,89.09,148.96c15.63,46.91-12.75,98.11-60.38,112.2
		c-38.38,11.36-71.84,2.09-98.25-27.22c-27.33-30.32-29.93-65.48-12.67-101.81c9.11-19.16,18.99-38.12,30.31-56.03
		C108.88,175.79,126.52,151.57,144.79,124.96z M143.27,366.6c5.48-4.42,13.06-7.77,15.96-13.49c4.89-9.65-2.07-17.8-14.94-20.04
		c-20.15-3.51-31.71-13.83-33.54-32.14c-1.17-11.6-5.63-18.05-17.71-17.1c-9.94,0.78-14.37,8.31-13.19,21.38
		C82.7,336.76,109.07,362.01,143.27,366.6z"/>
	<path class="st1" d="M306.08,541.15c-40.8-2.05-73.77-35.38-73.74-74.56c0.01-12.95,5.56-19.89,16.49-20.6
		c11.11-0.72,17.9,5.43,19.63,17.78c3.71,26.55,14.3,37.06,41.74,41.43c12.27,1.96,18.29,8.93,17.16,19.91
		C326.27,535.64,318.16,541.75,306.08,541.15z"/>
	<path class="st1" d="M435.54,263.58c-33.01-0.51-61.52-28.98-62.51-61.02c-0.31-10.09,2.84-17.77,13.32-18.99
		c10.28-1.19,15.41,4.88,17.27,15.18c4.15,22.98,11.43,30.2,34.34,34.3c10.14,1.82,16.58,6.72,15.46,17.09
		C452.29,260.54,444.79,264.56,435.54,263.58z"/>
	<path class="st1" d="M143.27,366.6c-34.2-4.59-60.57-29.85-63.43-61.4c-1.18-13.07,3.26-20.6,13.19-21.38
		c12.08-0.95,16.54,5.51,17.71,17.1c1.84,18.3,13.4,28.62,33.54,32.14c12.88,2.25,19.84,10.39,14.94,20.04
		C156.33,358.83,152.66,365.67,143.27,366.6z"/>
</g>
</svg>
