<?xml version="1.0" encoding="utf-8"?>
<!-- Generator: Adobe Illustrator 26.2.1, SVG Export Plug-In . SVG Version: 6.00 Build 0)  -->
<svg version="1.1" xmlns="http://www.w3.org/2000/svg" xmlns:xlink="http://www.w3.org/1999/xlink" x="0px" y="0px"
	 viewBox="0 0 40 40" style="enable-background:new 0 0 40 40;" xml:space="preserve">
<style type="text/css">
	.st0{fill:#1D1D1B;}
	.st1{fill:none;stroke:#FFFFFF;stroke-width:1.5294;stroke-miterlimit:10;}
	.st2{fill:none;stroke:#FFFFFF;stroke-width:1.6799;stroke-miterlimit:10;}
	.st3{fill:#FFFFFF;stroke:#FFFFFF;stroke-width:0.3207;stroke-miterlimit:10;}
	.st4{fill:#FFFFFF;}
	.st5{fill:none;stroke:#1D1D1B;stroke-width:1.5064;stroke-miterlimit:10;}
	.st6{fill:none;stroke:#1D1D1B;stroke-width:1.5064;stroke-linecap:round;stroke-miterlimit:10;}
	.st7{fill:none;stroke:#000000;stroke-width:0.8739;stroke-miterlimit:10;}
</style>
<g id="Capa_1">
	<g>
		<path class="st0" d="M-141.42,33.21h-17.21c-2.54,0-4.6-2.06-4.6-4.6V11.4c0-2.54,2.06-4.6,4.6-4.6h17.21c2.54,0,4.6,2.06,4.6,4.6
			V28.6C-136.82,31.15-138.88,33.21-141.42,33.21z"/>
		<circle class="st1" cx="-150.02" cy="20" r="5.26"/>
		<path class="st2" d="M-145.71,29.66h-8.49c-3.29,0-5.97-2.67-5.97-5.97v-7.48c0-3.29,2.67-5.97,5.97-5.97h8.49
			c3.29,0,5.97,2.67,5.97,5.97v7.48C-139.75,26.99-142.42,29.66-145.71,29.66z"/>
		<circle class="st3" cx="-144.11" cy="14.17" r="1.1"/>
	</g>
	<g>
		<path class="st0" d="M-99.9,33.21h-17.21c-2.54,0-4.6-2.06-4.6-4.6V11.4c0-2.54,2.06-4.6,4.6-4.6h17.21c2.54,0,4.6,2.06,4.6,4.6
			V28.6C-95.3,31.15-97.36,33.21-99.9,33.21z"/>
		<g>
			<path class="st4" d="M-107.79,16.5c-0.03-2.25,0.78-3.58,1.67-4.36c0.82-0.72,1.89-1.08,2.98-1.08h3.55v3.71h-2.65
				c-1.47,0.15-1.33,1.73-1.33,1.73v16.7h-4.22V16.5z"/>
			<polygon class="st4" points="-100.13,23.1 -111.18,23.1 -111.18,19.11 -99.59,19.11 			"/>
		</g>
	</g>
	<g>
		<path class="st0" d="M-57.02,33.21h-16.81c-2.52,0-4.56-2.04-4.56-4.56v-17.3c0-2.52,2.04-4.56,4.56-4.56h16.81
			c2.52,0,4.56,2.04,4.56,4.56v17.3C-52.46,31.16-54.5,33.21-57.02,33.21z"/>
		<path class="st4" d="M-72.89,13.12c0,0,1.91,3.27,7.62,3.93c0,0-0.88-3.42,2.18-4.23c0,0,2.82-1,4.35,0.87l2.02-0.94
			c0.08-0.04,0.17,0.02,0.17,0.1c0.02,0.28-0.14,0.91-1.44,1.79c0,0,0.56,0.2,1.88-0.49c0.05-0.03,0.11,0.02,0.09,0.07
			c-0.08,0.32-0.43,1.13-1.84,2.07c0,0-0.24,8.56-7.41,10.94c0,0-4.77,1.66-8.83-1.98c0,0,3.74,0.77,5.28-1.02
			c0,0-2.97-0.74-3.33-2.68l1.56-0.07c0,0-2.84-0.64-2.84-3.84c0,0,1.02,0.57,1.53,0.5C-71.92,18.14-74.4,16.3-72.89,13.12z"/>
	</g>
	<path class="st5" d="M-11.26,23.58h-19.07l-3.33-11.45h25.08c0.41,0,0.71,0.39,0.61,0.79l-2.68,10.2
		C-10.72,23.39-10.97,23.58-11.26,23.58z"/>
	<path class="st6" d="M-33.66,12.13l-1.52-4.55c-0.05-0.16-0.21-0.27-0.38-0.27l-4.1,0"/>
	<path class="st6" d="M-30.21,24.01l0.76,2.59c0.08,0.19,0.27,0.32,0.47,0.31l17.63,0"/>
	<circle class="st6" cx="-27.22" cy="30.76" r="2.09"/>
	<circle class="st6" cx="-13.37" cy="30.76" r="2.09"/>
</g>
<g id="Capa_2">
	<g>
		<path d="M14.62,22.78c-0.53-1.63,0.51-3.99,2.5-5.81c2.39-2.19,5.93-3.37,7.34-1.82c0.07,0.08,0.14,0.16,0.2,0.25
			c-1.18,0.24-3.87,1.11-4.45,4.05C19.59,22.52,15.91,22.79,14.62,22.78z"/>
		<path d="M15.56,24.53c-0.23-0.26-0.4-0.55-0.51-0.87c1.29,0,4.97-0.26,5.59-3.33c0.59-2.94,3.27-3.81,4.45-4.05
			c0.04,0.06,0.09,0.13,0.12,0.19c0.94,1.63,0.09,4.32-2.09,6.31C20.74,24.96,16.97,26.07,15.56,24.53z"/>
		<path class="st7" d="M1.49,19.47c0,0,17.59-18.74,37.01,0.11C38.51,19.58,21.72,40.5,1.49,19.47z"/>
		<circle class="st7" cx="19.96" cy="19.89" r="8.74"/>
	</g>
</g>
<g id="Capa_3">
</g>
</svg>
