<svg xmlns="http://www.w3.org/2000/svg" viewBox="0 0 28.33 26.2"><defs><style>.cls-1{fill:#734a91;}</style></defs><g id="Capa_2" data-name="Capa 2"><g id="Capa_1-2" data-name="Capa 1"><rect class="cls-1" x="3.35" y="6.79" width="10.61" height="2.75" rx="1.38" transform="translate(-3.19 9.28) rotate(-48.69)"/><rect class="cls-1" x="0.4" y="4.2" width="10.61" height="2.75" rx="1.38" transform="translate(-2.25 6.18) rotate(-48.69)"/><rect class="cls-1" x="-0.78" y="1.72" width="7.32" height="2.75" rx="1.38" transform="translate(-1.34 3.22) rotate(-48.69)"/><path class="cls-1" d="M9.93,13.76a2.9,2.9,0,0,1,3.21.73l12.63,11s1.15,1.25,2.18.35-.36-2.29-.36-2.29l-12.48-11a2.39,2.39,0,0,1-.88-2.44,16.66,16.66,0,0,1,.49-1.6c.49-4.35-5.82,3.17-5.82,3.17s-2,3.2,1,2.08Z"/></g></g></svg>